<svg width="98" height="37" viewBox="0 0 98 37" fill="none" xmlns="http://www.w3.org/2000/svg">
<g clip-path="url(#clip0_2008_63)">
<path d="M22.6409 17.9C24.7076 18.3667 26.3408 19.4 27.5408 21C28.7743 22.5667 29.3909 24.3667 29.3909 26.4C29.3909 29.4 28.3575 31.75 26.2908 33.45C24.2242 35.15 21.3242 36 17.5908 36H0.140869V0.749996H17.0408C20.6409 0.749996 23.4576 1.55 25.4909 3.15C27.5576 4.75 28.5908 7 28.5908 9.9C28.5908 11.9667 28.0408 13.7 26.9408 15.1C25.8742 16.4667 24.4408 17.4 22.6409 17.9ZM9.94087 14.75H14.8909C17.3575 14.75 18.5908 13.7333 18.5908 11.7C18.5908 9.6 17.3575 8.55 14.8909 8.55H9.94087V14.75ZM15.6409 28.1C18.1075 28.1 19.3408 27.0667 19.3408 25C19.3408 23.9333 19.0075 23.1167 18.3408 22.55C17.7075 21.9833 16.7908 21.7 15.5908 21.7H9.94087V28.1H15.6409ZM46.9857 36.35C42.8857 36.35 39.5191 35.3833 36.8857 33.45C34.2524 31.4833 32.8358 28.6833 32.6357 25.05H43.0858C43.1857 26.2833 43.5524 27.1833 44.1857 27.75C44.8191 28.3167 45.6357 28.6 46.6357 28.6C47.5358 28.6 48.2691 28.3833 48.8358 27.95C49.4357 27.4833 49.7357 26.85 49.7357 26.05C49.7357 25.0167 49.2525 24.2167 48.2858 23.65C47.3192 23.0833 45.7524 22.45 43.5858 21.75C41.2858 20.9833 39.4191 20.25 37.9857 19.55C36.5857 18.8167 35.3525 17.7667 34.2858 16.4C33.2525 15 32.7357 13.1833 32.7357 10.95C32.7357 8.68333 33.3024 6.75 34.4357 5.15C35.5691 3.51667 37.1357 2.28333 39.1357 1.45C41.1357 0.616663 43.4025 0.199997 45.9357 0.199997C50.0357 0.199997 53.3024 1.16667 55.7357 3.1C58.2024 5 59.5191 7.68333 59.6857 11.15H49.0358C49.0025 10.0833 48.6692 9.28333 48.0358 8.75C47.4358 8.21666 46.6525 7.95 45.6857 7.95C44.9524 7.95 44.3525 8.16666 43.8857 8.6C43.4192 9.03333 43.1857 9.65 43.1857 10.45C43.1857 11.1167 43.4357 11.7 43.9357 12.2C44.4692 12.6667 45.1191 13.0833 45.8857 13.45C46.6525 13.7833 47.7858 14.2167 49.2858 14.75C51.5191 15.5167 53.3525 16.2833 54.7858 17.05C56.2525 17.7833 57.5025 18.8333 58.5358 20.2C59.6025 21.5333 60.1357 23.2333 60.1357 25.3C60.1357 27.4 59.6025 29.2833 58.5358 30.95C57.5025 32.6167 55.9857 33.9333 53.9857 34.9C52.0191 35.8667 49.6857 36.35 46.9857 36.35ZM78.6416 0.749996C82.3416 0.749996 85.5749 1.5 88.3416 3C91.1416 4.46666 93.2916 6.53333 94.7916 9.2C96.2916 11.8667 97.0416 14.9167 97.0416 18.35C97.0416 21.75 96.2749 24.7833 94.7416 27.45C93.2416 30.1167 91.0917 32.2167 88.2916 33.75C85.5249 35.25 82.3083 36 78.6416 36H64.6916V0.749996H78.6416ZM77.8916 27.35C80.7583 27.35 83.0083 26.5667 84.6416 25C86.2749 23.4333 87.0916 21.2167 87.0916 18.35C87.0916 15.45 86.2749 13.2167 84.6416 11.65C83.0083 10.05 80.7583 9.25 77.8916 9.25H74.4916V27.35H77.8916Z" fill="white"/>
</g>
<defs>
<clipPath id="clip0_2008_63">
<rect width="98" height="37" fill="white"/>
</clipPath>
</defs>
</svg>
