<svg width="43" height="42" viewBox="0 0 43 42" fill="none" xmlns="http://www.w3.org/2000/svg">
<path d="M0.493164 15.1999C0.493164 9.87949 0.493164 7.21924 1.5286 5.18709C2.4394 3.39955 3.89272 1.94623 5.68025 1.03543C7.71241 0 10.3727 0 15.6931 0H27.2932C32.6137 0 35.274 0 37.306 1.03543C39.0936 1.94623 40.5469 3.39955 41.4577 5.18709C42.4932 7.21924 42.4932 9.87949 42.4932 15.1999V26.8C42.4932 32.1205 42.4932 34.7808 41.4577 36.8129C40.5469 38.6004 39.0936 40.0537 37.306 40.9646C35.274 42 32.6137 42 27.2932 42H15.6931C10.3727 42 7.71241 42 5.68025 40.9646C3.89272 40.0537 2.4394 38.6004 1.5286 36.8129C0.493164 34.7808 0.493164 32.1205 0.493164 26.8V15.1999Z" fill="url(#paint0_linear_2003_215)"/>
<path d="M20.8461 26.3945H14.3377L13.0135 30.6135C12.9768 30.7703 12.8325 30.8813 12.6754 30.8735H9.37892C9.19092 30.8735 9.12519 30.7676 9.1817 30.5556L14.8167 13.9107C14.8731 13.7373 14.9295 13.5399 14.9857 13.3184C15.0595 12.9327 15.0972 12.5409 15.0985 12.1481C15.0823 12.032 15.1843 11.9294 15.2956 11.9457H19.7755C19.9068 11.9457 19.9818 11.9939 20.0008 12.0902L26.3967 30.5846C26.4529 30.7773 26.3967 30.8736 26.2276 30.8735H22.5648C22.4364 30.8882 22.3137 30.8001 22.2831 30.6713L20.8461 26.3945ZM15.352 22.7534H19.8037C19.0723 20.2541 18.2469 17.7876 17.5779 15.269C16.8561 17.792 16.0686 20.3048 15.352 22.7534Z" fill="#161513"/>
<path d="M30.1999 15.0087C29.9125 15.0206 29.626 14.97 29.3589 14.8605C29.0919 14.751 28.8504 14.5848 28.6503 14.373C28.4508 14.1519 28.2957 13.8927 28.1941 13.61C28.0926 13.3274 28.0465 13.0269 28.0585 12.7259C28.0483 12.4278 28.0995 12.131 28.2087 11.8546C28.318 11.5782 28.4829 11.3286 28.6926 11.122C28.9002 10.9176 29.1453 10.7574 29.4138 10.6508C29.6821 10.5441 29.9685 10.4931 30.2562 10.5007C30.9325 10.5007 31.4631 10.7078 31.8481 11.122C32.0425 11.3373 32.1936 11.5897 32.2927 11.8649C32.3917 12.1401 32.437 12.4328 32.4256 12.7259C32.4375 13.028 32.3899 13.3296 32.2858 13.6125C32.1819 13.8954 32.0233 14.154 31.8199 14.373C31.6074 14.588 31.3536 14.7554 31.0749 14.8649C30.796 14.9742 30.4981 15.0233 30.1999 15.0087ZM28.2558 30.5844V16.7715C28.2558 16.5981 28.3306 16.5114 28.4812 16.5114H31.9468C32.0968 16.5114 32.172 16.5981 32.1721 16.7715V30.5844C32.1721 30.7773 32.097 30.8736 31.9468 30.8735H28.5094C28.3404 30.8735 28.2558 30.7772 28.2558 30.5844Z" fill="#161513"/>
<defs>
<linearGradient id="paint0_linear_2003_215" x1="21.4932" y1="0" x2="21.4932" y2="42" gradientUnits="userSpaceOnUse">
<stop stop-color="#FDFDFD"/>
<stop offset="1" stop-color="white" stop-opacity="0.18"/>
</linearGradient>
</defs>
</svg>
