<svg width="38" height="42" viewBox="0 0 38 42" fill="none" xmlns="http://www.w3.org/2000/svg">
<path d="M0.493164 0L3.85909 37.7874L18.9722 42L34.1251 37.7727L37.4932 0H0.493164ZM30.4987 8.6583L29.3767 21.2457L29.3809 21.315L29.3767 21.4704L28.5783 30.2694L28.4921 31.0527L18.9932 33.6777L18.9848 33.6861L9.50469 31.0443L8.86176 23.7678H13.5093L13.8392 27.468L18.9932 28.8645L24.1639 27.4491L24.7102 21.4242H13.9022L13.8098 20.4057L13.5976 18.0201L13.4883 16.7391H25.1241L25.5485 12.0519H7.81963L7.72718 11.0334L7.51707 8.6457L7.40571 7.3647H30.61L30.4987 8.6583Z" fill="url(#paint0_linear_2002_88)"/>
<defs>
<linearGradient id="paint0_linear_2002_88" x1="18.9932" y1="0" x2="18.9932" y2="42" gradientUnits="userSpaceOnUse">
<stop stop-color="#FDFDFD"/>
<stop offset="1" stop-color="white" stop-opacity="0.18"/>
</linearGradient>
</defs>
</svg>
