<svg width="28" height="32" viewBox="0 0 28 32" fill="none" xmlns="http://www.w3.org/2000/svg">
<path d="M16.05 0.0285697C9.14434 -0.396305 3.33053 3.94819 3.46171 11.0258L3.45671 11.6668L0.456402 16.9642C0.294902 17.2502 0.280527 17.5958 0.417277 17.8944C0.553965 18.1926 0.826215 18.4071 1.14803 18.4704L3.00259 18.9819L3.58403 24.6001C3.60003 25.1413 3.84078 25.6511 4.24865 26.0071C4.65759 26.3626 5.19603 26.5307 5.73446 26.4706L7.21478 26.5885C7.50415 26.5566 7.79296 26.6491 8.00953 26.8426C8.22665 27.0366 8.35015 27.3138 8.35015 27.6048V32H20.8762C20.8762 32 20.8762 29.8787 20.8762 29.0244C20.8762 28.1703 21.171 26.2181 21.731 25.3242C23.7608 22.0769 27.067 20.3497 27.6242 13.6904C28.1825 7.03176 24.2077 0.531195 16.05 0.0285697Z" fill="#D4AA3E"/>
</svg>
