<svg width="43" height="42" viewBox="0 0 43 42" fill="none" xmlns="http://www.w3.org/2000/svg">
<path d="M37.957 0H4.95703C2.47266 0 0.457031 2.01562 0.457031 4.5V37.5C0.457031 39.9844 2.47266 42 4.95703 42H37.957C40.4414 42 42.457 39.9844 42.457 37.5V4.5C42.457 2.01562 40.4414 0 37.957 0ZM23.3133 32.7562C23.3133 36.8438 20.9133 38.7094 17.4164 38.7094C14.257 38.7094 12.4289 37.0781 11.4914 35.1L14.707 33.1594C15.3258 34.2562 15.8883 35.1844 17.2477 35.1844C18.5414 35.1844 19.3664 34.6781 19.3664 32.7V19.2844H23.3133V32.7562ZM32.6508 38.7094C28.9852 38.7094 26.6133 36.9656 25.4602 34.6781L28.6758 32.8219C29.5195 34.2 30.6258 35.2219 32.5664 35.2219C34.1977 35.2219 35.2477 34.4062 35.2477 33.2719C35.2477 31.9219 34.1789 31.4437 32.3695 30.6469L31.3852 30.225C28.5352 29.0156 26.6508 27.4875 26.6508 24.2719C26.6508 21.3094 28.9102 19.0594 32.4258 19.0594C34.9383 19.0594 36.7383 19.9312 38.032 22.2187L34.957 24.1875C34.282 22.9781 33.5508 22.5 32.4164 22.5C31.2633 22.5 30.532 23.2312 30.532 24.1875C30.532 25.3687 31.2633 25.8469 32.9602 26.5875L33.9445 27.0094C37.3008 28.4437 39.1852 29.9156 39.1852 33.2156C39.1852 36.7594 36.3914 38.7094 32.6508 38.7094Z" fill="url(#paint0_linear_2002_85)"/>
<defs>
<linearGradient id="paint0_linear_2002_85" x1="21.457" y1="0" x2="21.457" y2="42" gradientUnits="userSpaceOnUse">
<stop stop-color="#FDFDFD"/>
<stop offset="1" stop-color="white" stop-opacity="0.18"/>
</linearGradient>
</defs>
</svg>
