<svg width="57" height="42" viewBox="0 0 57 42" fill="none" xmlns="http://www.w3.org/2000/svg">
<path d="M30.3583 6.74415C30.3583 6.74415 25.7616 6.4382 17.9287 8.9094C9.94871 11.4277 5.42207 14.998 5.42207 14.998C5.42207 14.998 17.3173 8.29748 30.7433 7.91856L30.3583 6.74415ZM47.5105 14.0283L48.1102 13.9883C48.1102 13.9883 44.6849 9.79903 38.1282 7.75617C41.8149 9.26714 45.0209 11.27 47.5105 14.0283ZM48.4905 15.7699C48.5815 15.6099 48.8779 16.2806 49.1042 16.5631C49.1135 16.6196 49.1275 16.6549 48.9992 16.6266C48.9875 16.5678 48.9689 16.5513 48.9689 16.5513C48.9689 16.5513 48.6539 16.363 48.5559 16.2289C48.4602 16.0947 48.4415 15.8594 48.4905 15.7699ZM56.5358 35.7255C56.5358 35.7255 57.2638 27.3046 44.1459 25.3629C42.1952 25.0791 40.2274 24.9321 38.2566 24.9228C27.7426 25.064 27.36 12.6915 35.2816 12.0678C38.5646 11.7948 42.4846 13.5812 46.3182 15.3816C46.3019 15.8617 46.3229 16.2877 46.6355 16.6807C46.9482 17.0761 48.1475 17.5045 48.5325 17.7281C48.9152 17.9493 50.1449 18.7401 50.8985 19.7286C51.0619 19.4203 52.4245 18.5236 52.4245 18.5236C52.4245 18.5236 52.0978 18.5306 51.3395 18.2435C50.5789 17.9564 49.6759 17.0903 49.6549 17.0408C49.6315 16.9891 49.6199 16.9114 49.7949 16.8761C49.9325 16.7608 49.6269 16.3889 49.4915 16.2524C49.3562 16.1159 48.4532 14.5673 48.4322 14.5343C48.4112 14.4967 48.4042 14.4614 48.3389 14.4167C48.1405 14.3531 47.2655 14.5108 47.2655 14.5108C47.2655 14.5108 45.9239 13.8447 45.4595 12.4091C45.4665 12.6609 45.2285 12.9363 45.4595 13.5129C44.7595 13.214 44.1576 12.7033 43.6816 11.4418C43.4016 12.1596 43.6816 12.6162 43.6816 12.6162C43.6816 12.6162 42.0319 12.1502 41.7682 10.6157C41.4789 11.3053 41.7682 11.7195 41.7682 11.7195C41.7682 11.7195 39.0779 10.3027 34.6073 10.2839C31.6136 10.0061 30.9906 4.69659 31.2706 3.80224C31.2706 3.80224 26.954 1.50756 18.4537 0.493185C9.95571 -0.518832 2.98841 0.340206 2.98841 0.340206C2.98841 0.340206 18.0383 -0.389387 30.0946 4.53655C30.5053 6.38407 31.7373 9.46483 32.4023 10.9452C30.5006 12.2702 28.3586 13.5153 28.025 17.9352C27.6913 22.3551 31.4596 26.2431 36.1309 26.3608C40.5642 26.6009 43.6302 26.6338 47.3449 28.5778C50.8915 30.5548 53.7988 36.5798 54.0882 42C54.3962 37.9778 52.9005 29.331 45.9215 26.7068C55.6772 28.4296 56.5358 35.7255 56.5358 35.7255ZM30.1296 6.08517L29.7796 4.94371C29.7796 4.94371 23.9836 3.9058 16.195 4.46359C8.40639 5.02137 0.543091 7.77265 0.543091 7.77265C0.543091 7.77265 16.6337 3.68928 30.1296 6.08517Z" fill="url(#paint0_linear_2003_206)"/>
<defs>
<linearGradient id="paint0_linear_2003_206" x1="28.5431" y1="0" x2="28.5431" y2="42" gradientUnits="userSpaceOnUse">
<stop stop-color="#FDFDFD"/>
<stop offset="1" stop-color="white" stop-opacity="0.18"/>
</linearGradient>
</defs>
</svg>
