<svg width="16" height="15" viewBox="0 0 16 15" fill="none" xmlns="http://www.w3.org/2000/svg">
<path fill-rule="evenodd" clip-rule="evenodd" d="M3.90521 15V4.87902H0.690069V14.9999H3.90521V15ZM2.29798 3.49769C3.41881 3.49769 4.117 2.71986 4.117 1.74866C4.09581 0.755866 3.41881 0 2.319 0C1.219 3.071e-05 0.5 0.755896 0.5 1.74869C0.5 2.71989 1.19781 3.49772 2.27681 3.49772L2.29798 3.49769ZM5.68467 15C5.68467 15 5.72685 5.82864 5.68467 4.87905H8.90031V6.34681H8.87897C9.30179 5.65614 10.0635 4.64139 11.798 4.64139C13.914 4.64139 15.5 6.08792 15.5 9.1967V15H12.2849V9.58558C12.2849 8.22509 11.8197 7.29673 10.6558 7.29673C9.76773 7.29673 9.23847 7.9226 9.00604 8.52759C8.92101 8.74293 8.90031 9.04539 8.90031 9.34788V15H5.68467Z" fill="#0A66C2"/>
</svg>
