<svg width="43" height="42" viewBox="0 0 43 42" fill="none" xmlns="http://www.w3.org/2000/svg">
<path d="M31.6266 39.3776C31.4704 39.4603 31.4836 39.4865 31.6332 39.4104C31.6793 39.3916 31.7216 39.3644 31.7579 39.3303C31.7579 39.3028 31.7579 39.3028 31.6266 39.3776ZM31.9416 39.2069C31.8668 39.2686 31.8668 39.2686 31.956 39.2279C31.989 39.2125 32.0192 39.1917 32.0453 39.1663C32.0453 39.1308 32.0243 39.1387 31.9416 39.2069ZM32.1464 39.0836C32.0715 39.1453 32.0715 39.1453 32.1608 39.1046C32.1939 39.0888 32.2241 39.0675 32.25 39.0416C32.25 39.0088 32.229 39.0153 32.1464 39.0836ZM32.3537 38.9615C32.2789 39.0232 32.2789 39.0232 32.3655 38.9812C32.4141 38.9549 32.4548 38.9274 32.4548 38.9195C32.4548 38.8867 32.4338 38.8933 32.3537 38.9615ZM32.6333 38.7764C32.4902 38.8723 32.4403 38.9339 32.5716 38.8657C32.6595 38.8119 32.8091 38.6937 32.7829 38.6937C32.7265 38.7147 32.6792 38.7502 32.632 38.7764H32.6333ZM20.0822 0.00964711C19.9864 0.0162097 19.699 0.0424603 19.447 0.0634607C13.4779 0.604222 7.89342 3.81729 4.35372 8.76682C2.39759 11.4815 1.12607 14.6284 0.647338 17.9401C0.478031 19.0951 0.457031 19.4364 0.457031 21.0022C0.457031 22.5667 0.478031 22.9027 0.647338 24.0578C1.79049 31.9474 7.40256 38.5704 15.0096 41.0248C16.3785 41.4619 17.813 41.7637 19.447 41.9488C20.0822 42.0171 22.8292 42.0171 23.4644 41.9488C26.2888 41.6338 28.6736 40.9369 31.0334 39.7333C31.3956 39.5495 31.4639 39.5009 31.4153 39.4603C30.2641 37.9385 29.1227 36.4094 27.9911 34.873L24.6352 30.3408L20.4313 24.1129C19.033 22.0276 17.6203 19.952 16.1934 17.8863C16.179 17.8863 16.1606 20.6544 16.1527 24.0302C16.1383 29.9431 16.1383 30.1833 16.0635 30.3198C15.9917 30.4847 15.8632 30.6184 15.7012 30.6965C15.5713 30.7582 15.4545 30.7713 14.8337 30.7713H14.1237L13.9386 30.6558C13.8227 30.5815 13.7285 30.4778 13.6656 30.3553L13.5764 30.1702L13.5829 21.9393L13.5974 13.7085L13.7273 13.5444C13.8103 13.4436 13.9124 13.3601 14.0279 13.299C14.1998 13.2163 14.268 13.2032 14.9781 13.2032C15.8115 13.2032 15.9493 13.236 16.1685 13.4762C17.8714 16.0092 19.5597 18.552 21.2333 21.1046C23.9619 25.2417 27.6866 30.8868 29.5175 33.6563L32.8472 38.6951L33.0113 38.5861C34.6115 37.5227 36.0616 36.2491 37.3227 34.7995C39.968 31.7716 41.6845 28.0453 42.2667 24.0669C42.436 22.9119 42.457 22.5694 42.457 21.0048C42.457 19.439 42.436 19.1043 42.2667 17.9493C41.1236 10.0597 35.5115 3.43665 27.9045 0.980917C26.4828 0.530617 25.0195 0.224137 23.5366 0.0660858C23.1389 0.0253974 20.4248 -0.0231661 20.0835 0.0122722L20.0822 0.00964711ZM28.6749 12.711C28.7725 12.7589 28.8596 12.8259 28.9311 12.9079C29.0025 12.99 29.0569 13.0854 29.0909 13.1887C29.1264 13.299 29.1329 15.5815 29.1264 20.7226L29.1119 28.1043L27.8139 26.1092L26.508 24.1129V18.7538C26.508 15.2796 26.5225 13.3318 26.5408 13.236C26.6051 13.0163 26.7525 12.8303 26.9516 12.7175C27.1144 12.6348 27.1774 12.6283 27.8271 12.6283C28.4347 12.6283 28.5384 12.6348 28.6749 12.711Z" fill="url(#paint0_linear_2002_86)"/>
<defs>
<linearGradient id="paint0_linear_2002_86" x1="21.457" y1="0" x2="21.457" y2="42" gradientUnits="userSpaceOnUse">
<stop stop-color="#FDFDFD"/>
<stop offset="1" stop-color="white" stop-opacity="0.18"/>
</linearGradient>
</defs>
</svg>
