<svg width="48" height="42" viewBox="0 0 48 42" fill="none" xmlns="http://www.w3.org/2000/svg">
<path d="M23.957 16.8729C26.2087 16.8729 28.0449 18.7072 28.0449 21C28.0449 23.1836 26.2087 25.0397 23.957 25.0397C21.7054 25.0397 19.8691 23.1836 19.8691 21C19.8691 18.7072 21.7054 16.8729 23.957 16.8729ZM13.8356 38.469C15.2128 39.2988 18.2296 38.0323 21.7054 34.7568C20.5687 33.4685 19.4538 32.071 18.4045 30.608C16.6429 30.4396 14.8915 30.1771 13.158 29.8218C12.0431 34.4948 12.4584 37.7047 13.8356 38.469ZM15.3877 25.935L14.7538 24.8213C14.5133 25.4546 14.2728 26.0878 14.1198 26.6993C14.7101 26.8303 15.3659 26.9395 16.0435 27.0486L15.3877 25.935ZM29.6845 24.2754L31.4552 21L29.6845 17.7246C29.0287 16.5672 28.3291 15.5409 27.6952 14.5146C26.5147 14.4491 25.2687 14.4491 23.957 14.4491C22.6454 14.4491 21.3994 14.4491 20.2189 14.5146C19.5849 15.5409 18.8854 16.5672 18.2296 17.7246L16.4589 21L18.2296 24.2754C18.8854 25.4328 19.5849 26.4591 20.2189 27.4854C21.3994 27.5509 22.6454 27.5509 23.957 27.5509C25.2687 27.5509 26.5147 27.5509 27.6952 27.4854C28.3291 26.4591 29.0287 25.4328 29.6845 24.2754ZM23.957 9.60147C23.5417 10.0819 23.1045 10.5841 22.6673 11.1737H25.2468C24.8096 10.5841 24.3724 10.0819 23.957 9.60147ZM23.957 32.3985C24.3724 31.9181 24.8096 31.4159 25.2468 30.8263H22.6673C23.1045 31.4159 23.5417 31.9181 23.957 32.3985ZM34.0566 3.53099C32.7012 2.70122 29.6845 3.96772 26.2087 7.24316C27.3454 8.5315 28.4603 9.92902 29.5096 11.392C31.3021 11.5667 33.0728 11.8288 34.7561 12.1782C35.871 7.50519 35.4556 4.29526 34.0566 3.53099ZM32.5263 16.065L33.1603 17.1787C33.4007 16.5454 33.6412 15.9122 33.7942 15.3007C33.204 15.1697 32.5482 15.0605 31.8705 14.9514L32.5263 16.065ZM35.6961 0.670445C38.9096 2.50469 39.2594 7.3305 37.904 12.9643C43.4566 14.602 47.457 17.3097 47.457 21C47.457 24.6903 43.4566 27.398 37.904 29.0357C39.2594 34.6695 38.9096 39.4953 35.6961 41.3296C32.5045 43.1638 28.1542 41.0675 23.957 37.0715C19.7598 41.0675 15.4096 43.1638 12.1961 41.3296C9.00447 39.4953 8.65471 34.6695 10.0101 29.0357C4.4575 27.398 0.457031 24.6903 0.457031 21C0.457031 17.3097 4.4575 14.602 10.0101 12.9643C8.65471 7.3305 9.00447 2.50469 12.1961 0.670445C15.4096 -1.1638 19.7598 0.93248 23.957 4.92851C28.1542 0.93248 32.5045 -1.1638 35.6961 0.670445ZM35.0621 21C35.8054 22.6377 36.4612 24.2754 37.0077 25.935C41.5984 24.5593 44.178 22.594 44.178 21C44.178 19.406 41.5984 17.4407 37.0077 16.065C36.4612 17.7246 35.8054 19.3623 35.0621 21ZM12.8519 21C12.1087 19.3623 11.4528 17.7246 10.9063 16.065C6.31564 17.4407 3.7361 19.406 3.7361 21C3.7361 22.594 6.31564 24.5593 10.9063 25.935C11.4528 24.2754 12.1087 22.6377 12.8519 21ZM32.5263 25.935L31.8705 27.0486C32.5482 26.9395 33.204 26.8303 33.7942 26.6993C33.6412 26.0878 33.4007 25.4546 33.1603 24.8213L32.5263 25.935ZM26.2087 34.7568C29.6845 38.0323 32.7012 39.2988 34.0566 38.469C35.4556 37.7047 35.871 34.4948 34.7561 29.8218C33.0728 30.1712 31.3021 30.4333 29.5096 30.608C28.4603 32.071 27.3454 33.4685 26.2087 34.7568ZM15.3877 16.065L16.0435 14.9514C15.3659 15.0605 14.7101 15.1697 14.1198 15.3007C14.2728 15.9122 14.5133 16.5454 14.7538 17.1787L15.3877 16.065ZM21.7054 7.24316C18.2296 3.96772 15.2128 2.70122 13.8356 3.53099C12.4584 4.29526 12.0431 7.50519 13.158 12.1782C14.8915 11.8229 16.6429 11.5604 18.4045 11.392C19.4538 9.92902 20.5687 8.5315 21.7054 7.24316Z" fill="url(#paint0_linear_2002_89)"/>
<defs>
<linearGradient id="paint0_linear_2002_89" x1="23.957" y1="0" x2="23.957" y2="42" gradientUnits="userSpaceOnUse">
<stop stop-color="#FDFDFD"/>
<stop offset="1" stop-color="white" stop-opacity="0.18"/>
</linearGradient>
</defs>
</svg>
