<svg width="38" height="42" viewBox="0 0 38 42" fill="none" xmlns="http://www.w3.org/2000/svg">
<path fill-rule="evenodd" clip-rule="evenodd" d="M27.4844 6.1203C28.1726 6.80708 28.9526 7.58495 28.9526 7.58495C28.9526 7.58495 32.1641 7.8238 32.3156 7.83692C32.4684 7.85005 32.6525 7.96687 32.6812 8.17818C32.71 8.3895 37.2432 39.1926 37.2432 39.1926L26.1194 41.6106L27.4844 6.1203ZM25.778 4.95354C25.6927 4.96458 25.6188 4.98141 25.5674 4.9967C25.5399 5.00457 25.0802 5.14764 24.3188 5.38389C23.5731 3.22876 22.2579 1.2482 19.945 1.2482C19.881 1.2482 19.8144 1.25083 19.7491 1.25477C19.0908 0.380643 18.2759 0 17.5719 0C12.182 0 9.60655 6.77251 8.79943 10.2126C6.70458 10.8649 5.21703 11.3282 5.02766 11.3886C3.85747 11.7574 3.8209 11.7942 3.6681 12.9006C3.55186 13.7393 0.493164 37.5126 0.493164 37.5126L24.328 42L24.3533 41.9945L25.778 4.95354ZM19.5728 6.62552C19.5728 6.70821 19.5715 6.78433 19.5715 6.86045C18.2589 7.26864 16.834 7.71226 15.4053 8.1572C16.2072 5.04657 17.7104 3.54373 19.0255 2.97673C19.356 3.81148 19.5728 5.00983 19.5728 6.62552ZM17.4231 1.45296C17.6568 1.45296 17.8906 1.53301 18.1152 1.68789C16.3874 2.50426 14.5368 4.56225 13.7545 8.67037C12.6117 9.02606 11.495 9.37388 10.462 9.69544C11.3775 6.56119 13.552 1.45296 17.4231 1.45296ZM18.3516 19.7689C18.3516 19.7689 16.9568 19.0207 15.2472 19.0207C12.7397 19.0207 12.613 20.6023 12.613 21C12.613 23.1748 18.2524 24.0082 18.2524 29.1007C18.2524 33.1065 15.7239 35.6869 12.3139 35.6869C8.22217 35.6869 6.12993 33.1275 6.12993 33.1275L7.22568 29.4906C7.22568 29.4906 9.37668 31.3465 11.192 31.3465C12.3766 31.3465 12.8598 30.408 12.8598 29.7229C12.8598 26.8866 8.23262 26.7592 8.23262 22.0986C8.23262 18.1768 11.034 14.3811 16.6891 14.3811C18.8675 14.3811 19.945 15.0085 19.945 15.0085L18.3516 19.7689ZM20.9846 6.42076C20.9846 6.2777 20.9859 6.13725 20.9859 5.98369C20.9859 4.64494 20.8004 3.56606 20.504 2.71162C21.6963 2.86125 22.4904 4.22491 23.001 5.79335C22.4029 5.97973 21.7225 6.19107 20.9846 6.42076Z" fill="url(#paint0_linear_2003_331)"/>
<defs>
<linearGradient id="paint0_linear_2003_331" x1="18.8682" y1="0" x2="18.8682" y2="42" gradientUnits="userSpaceOnUse">
<stop stop-color="#FDFDFD"/>
<stop offset="1" stop-color="white" stop-opacity="0.18"/>
</linearGradient>
</defs>
</svg>
