<svg width="32" height="32" viewBox="0 0 32 32" fill="none" xmlns="http://www.w3.org/2000/svg">
<path d="M30.1048 0H1.89517C0.848498 0 0 0.848498 0 1.89517V30.1048C0 31.1515 0.848498 32 1.89517 32H30.1048C31.1515 32 32 31.1515 32 30.1048V1.89517C32 0.848498 31.1515 0 30.1048 0Z" fill="#0F1131"/>
<path d="M21.1826 15.2542L15.7797 18.8642C14.8983 19.4564 15.3198 20.8221 16.3736 20.8221H24.2289C24.66 20.8221 25.0431 21.08 25.2156 21.4715L26.2598 23.9069C26.5663 24.6137 26.0394 25.3968 25.2731 25.3968H5.64444C5.05051 25.3968 4.57153 24.9193 4.57153 24.3271V21.3856C4.57153 21.0322 4.75355 20.6979 5.05051 20.4974L15.5689 13.4682C15.7413 13.3536 15.9521 13.2867 16.1629 13.2867H20.579C21.6424 13.2867 22.0543 14.6525 21.173 15.2446L21.1826 15.2542ZM26.9112 7.16487V9.60025C26.9112 10.1924 26.4322 10.6699 25.8382 10.6699H11.852C11.4209 10.6699 11.0378 10.412 10.8653 10.0205L9.82115 7.5851C9.5146 6.87836 10.0415 6.09521 10.8078 6.09521H25.8478C26.4418 6.09521 26.9207 6.57274 26.9207 7.16487H26.9112Z" fill="#DA1F1E"/>
</svg>
